<svg xmlns="http://www.w3.org/2000/svg" width="200" height="200"><path d="m111.835 103.227 38.108 38.108-7.046 7.047-38.109-38.109Zm.99 2.404a7.964 7.964 0 0 0 0 11.264l30.072 30.073 5.632-5.633Z" clip-rule="evenodd"/><path d="m134.845 145.879 13.243-13.243 30.24 30.239-13.244 13.243Z"/><path d="m134.138 145.879 13.95-13.95 30.947 30.946-13.951 13.951Zm1.414 0 29.532 29.532 12.537-12.536-29.533-29.532Z"/><path d="M105.975 105.614c20.918-20.918 20.918-54.832 0-75.749-6.246-6.247-13.652-10.628-21.524-13.144 9.022 2.431 17.547 7.187 24.628 14.268 21.564 21.564 21.564 56.526 0 78.09s-56.526 21.564-78.09 0a55 55 0 0 1-15.934-33.892 53.33 53.33 0 0 0 15.171 30.427c20.917 20.917 54.832 20.917 75.749 0" clip-rule="evenodd"/><path d="M105.268 30.572c-6.131-6.131-13.398-10.43-21.121-12.898l.564-1.918c9.186 2.475 17.867 7.317 25.075 14.525 21.955 21.955 21.955 57.55 0 79.505s-57.55 21.955-79.505 0c-9.641-9.641-15.048-21.915-16.222-34.507l1.986-.231a52.33 52.33 0 0 0 14.888 29.859c20.527 20.527 53.808 20.527 74.335 0s20.527-53.808 0-74.335m3.104 77.8c18.91-18.911 20.931-48.316 6.063-69.469 13.13 21.056 10.546 49.119-7.753 67.418-20.561 20.561-53.45 21.282-74.876 2.161 21.183 21.063 55.429 21.026 76.566-.11"/><path d="M106.683 106.321Q90.701 122.302 68.1 122.302t-38.581-15.981Q13.538 90.34 13.538 67.739t15.981-38.582T68.1 13.176q22.601 0 38.583 15.981 15.98 15.981 15.98 38.582t-15.98 38.582m-.708-.708q15.688-15.688 15.688-37.874t-15.688-37.874T68.1 14.176 30.226 29.865Q14.538 45.553 14.538 67.739t15.688 37.874q15.688 15.689 37.874 15.689 22.187 0 37.875-15.689"/></svg>